<svg width="120" height="120" viewBox="0 0 120 120" fill="none" xmlns="http://www.w3.org/2000/svg">
<rect width="120" height="120" rx="60" fill="#AEF2CA"/>
<path d="M60 96.6667C56.9999 96.6667 54.1341 95.4369 48.4021 92.9776C34.134 86.8558 27 83.7948 27 78.6461V44.4075M60 96.6667C63.0001 96.6667 65.8659 95.4369 71.598 92.9776C85.8661 86.8558 93 83.7948 93 78.6461V44.4075M60 96.6667V60.6259M27 44.4075C27 46.6212 29.9391 48.0192 35.8173 50.815L46.5284 55.9095C53.1389 59.0536 56.4444 60.6259 60 60.6259M27 44.4075C27 42.1938 29.9391 40.7958 35.8173 38M93 44.4075C93 46.6212 90.0608 48.0192 84.1828 50.815L73.4717 55.9095C66.8611 59.0536 63.5556 60.6259 60 60.6259M93 44.4075C93 42.1938 90.0608 40.7958 84.1828 38M39.2174 64.807L46.5283 68.2845" stroke="#116735" stroke-width="3" stroke-linecap="round" stroke-linejoin="round"/>
<path d="M59.9997 23.3333V30.6667M74.6663 27L69.1663 34.3333M45.333 27L50.833 34.3333" stroke="#116735" stroke-width="3" stroke-linecap="round"/>
</svg>
