<svg width="183" height="40" viewBox="0 0 183 40" fill="none" xmlns="http://www.w3.org/2000/svg">
<path d="M75.6655 26.2778H67.1354L65.5077 30.2105H61.1494L69.3378 11.8653H73.5377L81.7541 30.2105H77.2902L75.6624 26.2778H75.6655ZM74.3267 23.0554L71.4129 16.0306L68.4991 23.0554H74.3267Z" fill="#116735"/>
<path d="M96.205 17.4734C97.2798 18.5217 97.8203 20.0755 97.8203 22.138V30.2111H93.7261V22.7676C93.7261 21.651 93.4807 20.8137 92.9899 20.2647C92.4991 19.7157 91.7908 19.4397 90.862 19.4397C89.8307 19.4397 89.0075 19.7592 88.3955 20.3949C87.7836 21.0339 87.476 21.9798 87.476 23.239V30.2111H83.3818V10.7649H87.476V17.5788C88.0197 17.0361 88.6751 16.6236 89.4455 16.3352C90.2159 16.0467 91.0546 15.904 91.9648 15.904C93.7137 15.904 95.1271 16.4282 96.205 17.4765V17.4734Z" fill="#116735"/>
<path d="M101.731 13.4905C101.259 13.0532 101.023 12.5135 101.023 11.8653C101.023 11.2171 101.259 10.6774 101.731 10.2401C102.203 9.80284 102.815 9.58574 103.57 9.58574C104.325 9.58574 104.934 9.79663 105.409 10.2153C105.881 10.634 106.117 11.1582 106.117 11.7878C106.117 12.4701 105.881 13.0315 105.409 13.4781C104.937 13.9247 104.325 14.1449 103.57 14.1449C102.815 14.1449 102.206 13.9278 101.731 13.4905ZM101.52 16.1112H105.614V30.2104H101.52V16.1112Z" fill="#116735"/>
<path d="M120.158 17.461C121.329 18.5 121.916 20.0693 121.916 22.1659V30.2111H118.083V28.4557C117.313 29.7645 115.877 30.422 113.778 30.422C112.693 30.422 111.752 30.239 110.957 29.873C110.162 29.5071 109.553 28.9984 109.134 28.3533C108.714 27.7082 108.503 26.9732 108.503 26.1513C108.503 24.8394 108.997 23.8097 109.985 23.0591C110.973 22.3086 112.501 21.9333 114.567 21.9333H117.822C117.822 21.0432 117.552 20.3578 117.008 19.877C116.465 19.3963 115.651 19.1575 114.567 19.1575C113.815 19.1575 113.076 19.2754 112.349 19.5111C111.622 19.7468 111.007 20.0662 110.497 20.4663L109.028 17.6099C109.798 17.0671 110.721 16.6484 111.796 16.3507C112.874 16.0529 113.979 15.9041 115.116 15.9041C117.303 15.9041 118.984 16.4251 120.155 17.4641L120.158 17.461ZM116.667 27.1841C117.21 26.8615 117.595 26.3839 117.822 25.7543V24.3121H115.014C113.333 24.3121 112.495 24.8611 112.495 25.9621C112.495 26.4862 112.7 26.9018 113.113 27.2058C113.523 27.5128 114.088 27.6648 114.806 27.6648C115.523 27.6648 116.126 27.5035 116.67 27.181L116.667 27.1841Z" fill="#116735"/>
<path d="M128.492 29.4914C127.312 28.8711 126.389 28.012 125.725 26.911C125.06 25.81 124.728 24.5601 124.728 23.1644C124.728 21.7688 125.06 20.5158 125.725 19.4179C126.389 18.3169 127.312 17.4578 128.492 16.8375C129.673 16.2172 131.009 15.907 132.497 15.907C133.985 15.907 135.314 16.2172 136.485 16.8375C137.656 17.4578 138.576 18.3169 139.241 19.4179C139.905 20.5189 140.238 21.7688 140.238 23.1644C140.238 24.5601 139.905 25.81 139.241 26.911C138.576 28.012 137.656 28.8711 136.485 29.4914C135.311 30.1117 133.981 30.4219 132.497 30.4219C131.012 30.4219 129.676 30.1117 128.492 29.4914ZM135.081 26.0054C135.755 25.2983 136.091 24.3492 136.091 23.1613C136.091 21.9735 135.752 21.0244 135.081 20.3173C134.41 19.6102 133.547 19.2566 132.497 19.2566C131.447 19.2566 130.58 19.6102 129.897 20.3173C129.213 21.0244 128.871 21.9735 128.871 23.1613C128.871 24.3492 129.213 25.2983 129.897 26.0054C130.58 26.7125 131.447 27.0661 132.497 27.0661C133.547 27.0661 134.407 26.7125 135.081 26.0054Z" fill="#116735"/>
<path d="M165.269 17.4607C166.31 18.4997 166.832 20.0598 166.832 22.1377V30.2108H162.737V22.7673C162.737 21.6508 162.504 20.8134 162.042 20.2645C161.579 19.7155 160.917 19.4395 160.06 19.4395C159.097 19.4395 158.336 19.7496 157.777 20.3699C157.217 20.9902 156.938 21.9113 156.938 23.1364V30.2139H152.844V22.7704C152.844 20.5529 151.952 19.4426 150.166 19.4426C149.222 19.4426 148.47 19.7527 147.908 20.373C147.348 20.9933 147.069 21.9144 147.069 23.1395V30.217H142.975V16.1178H146.886V17.743C147.411 17.1506 148.054 16.6947 148.815 16.3814C149.576 16.0682 150.411 15.91 151.321 15.91C152.319 15.91 153.219 16.1054 154.024 16.4993C154.829 16.8932 155.478 17.4638 155.966 18.2175C156.543 17.4824 157.273 16.9149 158.159 16.5148C159.041 16.1116 160.01 15.9131 161.06 15.9131C162.827 15.9131 164.232 16.4342 165.272 17.4731L165.269 17.4607Z" fill="#116735"/>
<path d="M181.242 17.461C182.413 18.5 183 20.0693 183 22.1659V30.2111H179.167V28.4557C178.397 29.7645 176.961 30.422 174.862 30.422C173.777 30.422 172.836 30.239 172.041 29.873C171.246 29.5071 170.637 28.9984 170.217 28.3533C169.798 27.7082 169.587 26.9732 169.587 26.1513C169.587 24.8394 170.081 23.8097 171.069 23.0591C172.056 22.3086 173.585 21.9333 175.651 21.9333H178.906C178.906 21.0432 178.636 20.3578 178.092 19.877C177.549 19.3963 176.735 19.1575 175.651 19.1575C174.899 19.1575 174.16 19.2754 173.433 19.5111C172.706 19.7468 172.091 20.0662 171.581 20.4663L170.112 17.6099C170.882 17.0671 171.805 16.6484 172.88 16.3507C173.958 16.0529 175.063 15.9041 176.2 15.9041C178.387 15.9041 180.068 16.4251 181.239 17.4641L181.242 17.461ZM177.75 27.1841C178.294 26.8615 178.679 26.3839 178.906 25.7543V24.3121H176.098C174.417 24.3121 173.579 24.8611 173.579 25.9621C173.579 26.4862 173.784 26.9018 174.197 27.2058C174.607 27.5128 175.172 27.6648 175.89 27.6648C176.607 27.6648 177.21 27.5035 177.754 27.181L177.75 27.1841Z" fill="#116735"/>
<path d="M0.127325 0.584477C0.298176 0.305346 0.630558 0.187501 1.84515 0.0913559C2.92928 0.00451507 3.85809 -0.0637299 5.23111 0.097546C6.21584 0.2123 6.68179 0.358078 6.80605 0.398397C7.35898 0.57518 8.00201 0.782968 8.54562 1.33813C8.94013 1.74132 9.1203 2.15382 9.32222 2.60663C9.73226 3.53707 9.95902 4.64428 10.0522 5.09399C10.1516 5.59333 10.1951 5.91589 10.4747 6.17331C10.8195 6.49276 11.2948 6.50207 11.4843 6.50207C12.4876 6.50827 27.2026 6.52378 47.3878 6.52688C47.6519 6.58581 47.9936 6.71297 48.2234 7.00761C48.3632 7.18749 48.5589 7.56586 48.4223 8.33502C48.2266 9.44224 46.6796 15.059 44.4492 22.701C44.3249 23.2282 44.0702 23.8764 43.5142 24.3665C42.9022 24.9061 42.1877 25.024 41.8926 25.0705C39.5815 25.4241 19.9523 26.2615 16.7527 27.043C16.3955 27.1299 15.5567 27.347 15.2834 27.9952C15.0814 28.4759 15.2119 29.1458 15.6002 29.5087C15.8705 29.7599 16.2153 29.8219 16.4452 29.8374C17.4858 29.9119 27.6281 29.8871 41.4515 29.7909C42.2126 29.9429 42.691 30.6469 42.5791 31.3044C42.4891 31.8286 42.0355 32.2628 41.4515 32.362C28.7526 32.759 19.2658 32.728 15.8829 32.362C14.8982 32.2566 13.317 31.9992 12.6026 30.8485C12.1086 30.0545 11.9005 28.6248 12.3199 27.4338C12.4938 26.9407 12.7175 26.6553 12.7796 26.0258C12.8635 25.1449 12.5466 24.4595 12.4628 24.2641C11.5309 22.0931 8.23498 7.2123 6.88992 4.01779C6.7812 3.75727 6.52958 3.21141 5.97354 2.89196C5.53243 2.64075 5.09133 2.64075 4.80865 2.64695C2.29248 2.69038 1.02196 3.22071 0.469029 2.61282C0.226731 2.3461 0.127327 1.94602 0.080731 1.73202C0.0248161 1.4839 -0.090122 0.95356 0.127325 0.593791V0.584477Z" fill="#F68C1F"/>
<path d="M19.0919 39.9999C20.7475 39.9999 22.0896 38.6599 22.0896 37.007C22.0896 35.354 20.7475 34.0141 19.0919 34.0141C17.4363 34.0141 16.0942 35.354 16.0942 37.007C16.0942 38.6599 17.4363 39.9999 19.0919 39.9999Z" fill="#F68C1F"/>
<path d="M37.2887 39.9999C38.9442 39.9999 40.2863 38.6599 40.2863 37.007C40.2863 35.354 38.9442 34.0141 37.2887 34.0141C35.6331 34.0141 34.291 35.354 34.291 37.007C34.291 38.6599 35.6331 39.9999 37.2887 39.9999Z" fill="#F68C1F"/>
<path d="M13.8887 13.3103C23.4532 19.9629 33.0457 20.3692 42.6693 13.7879C35.1301 23.7715 22.4312 24.4135 13.8887 13.3103Z" fill="white"/>
</svg>
